<svg width="1200" height="800" xmlns="http://www.w3.org/2000/svg">
  <defs>
    <style>
      .title { font: bold 24px sans-serif; fill: #2563eb; }
      .subtitle { font: bold 16px sans-serif; fill: #1e40af; }
      .text { font: 12px sans-serif; fill: #374151; }
      .box { fill: #f8fafc; stroke: #e2e8f0; stroke-width: 2; rx: 8; }
      .process { fill: #dbeafe; stroke: #3b82f6; stroke-width: 2; rx: 8; }
      .service { fill: #ecfdf5; stroke: #10b981; stroke-width: 2; rx: 8; }
      .storage { fill: #fef3c7; stroke: #f59e0b; stroke-width: 2; rx: 8; }
      .user { fill: #fce7f3; stroke: #ec4899; stroke-width: 2; rx: 8; }
      .arrow { stroke: #6b7280; stroke-width: 2; fill: none; marker-end: url(#arrowhead); }
      .data-flow { stroke: #3b82f6; stroke-width: 2; fill: none; marker-end: url(#arrowhead); stroke-dasharray: 5,5; }
    </style>
    <marker id="arrowhead" markerWidth="10" markerHeight="7" refX="9" refY="3.5" orient="auto">
      <polygon points="0 0, 10 3.5, 0 7" fill="#6b7280" />
    </marker>
  </defs>
  
  <!-- Title -->
  <text x="600" y="30" text-anchor="middle" class="title">LectureChat - System Architecture & Flow</text>
  
  <!-- User Layer -->
  <text x="100" y="70" class="subtitle">User Interface</text>
  <rect x="50" y="80" width="120" height="60" class="user" />
  <text x="110" y="100" text-anchor="middle" class="text">Upload Video</text>
  <text x="110" y="115" text-anchor="middle" class="text">Interface</text>
  
  <rect x="200" y="80" width="120" height="60" class="user" />
  <text x="260" y="100" text-anchor="middle" class="text">Chat Interface</text>
  <text x="260" y="115" text-anchor="middle" class="text">with Video Player</text>
  
  <rect x="350" y="80" width="120" height="60" class="user" />
  <text x="410" y="100" text-anchor="middle" class="text">Dashboard</text>
  <text x="410" y="115" text-anchor="middle" class="text">Management</text>
  
  <!-- Processing Pipeline -->
  <text x="100" y="190" class="subtitle">Video Processing Pipeline</text>
  
  <!-- Step 1: Upload -->
  <rect x="50" y="200" width="100" height="50" class="process" />
  <text x="100" y="220" text-anchor="middle" class="text">1. File Upload</text>
  <text x="100" y="235" text-anchor="middle" class="text">Validation</text>
  
  <!-- Step 2: Audio Extraction -->
  <rect x="170" y="200" width="100" height="50" class="process" />
  <text x="220" y="220" text-anchor="middle" class="text">2. Audio</text>
  <text x="220" y="235" text-anchor="middle" class="text">Extraction</text>
  
  <!-- Step 3: Transcription -->
  <rect x="290" y="200" width="100" height="50" class="process" />
  <text x="340" y="220" text-anchor="middle" class="text">3. Whisper</text>
  <text x="340" y="235" text-anchor="middle" class="text">Transcription</text>
  
  <!-- Step 4: Chunking -->
  <rect x="410" y="200" width="100" height="50" class="process" />
  <text x="460" y="220" text-anchor="middle" class="text">4. Text</text>
  <text x="460" y="235" text-anchor="middle" class="text">Chunking</text>
  
  <!-- Step 5: Embeddings -->
  <rect x="530" y="200" width="100" height="50" class="process" />
  <text x="580" y="220" text-anchor="middle" class="text">5. Generate</text>
  <text x="580" y="235" text-anchor="middle" class="text">Embeddings</text>
  
  <!-- Step 6: Storage -->
  <rect x="650" y="200" width="100" height="50" class="process" />
  <text x="700" y="220" text-anchor="middle" class="text">6. Vector</text>
  <text x="700" y="235" text-anchor="middle" class="text">Storage</text>
  
  <!-- Chat Processing Pipeline -->
  <text x="100" y="310" class="subtitle">Chat Interaction Flow</text>
  
  <!-- Chat Step 1: Query -->
  <rect x="50" y="320" width="100" height="50" class="process" />
  <text x="100" y="340" text-anchor="middle" class="text">1. User Query</text>
  <text x="100" y="355" text-anchor="middle" class="text">Input</text>
  
  <!-- Chat Step 2: Embedding -->
  <rect x="170" y="320" width="100" height="50" class="process" />
  <text x="220" y="340" text-anchor="middle" class="text">2. Query</text>
  <text x="220" y="355" text-anchor="middle" class="text">Embedding</text>
  
  <!-- Chat Step 3: Search -->
  <rect x="290" y="320" width="100" height="50" class="process" />
  <text x="340" y="340" text-anchor="middle" class="text">3. Vector</text>
  <text x="340" y="355" text-anchor="middle" class="text">Search</text>
  
  <!-- Chat Step 4: Context -->
  <rect x="410" y="320" width="100" height="50" class="process" />
  <text x="460" y="340" text-anchor="middle" class="text">4. Retrieve</text>
  <text x="460" y="355" text-anchor="middle" class="text">Context</text>
  
  <!-- Chat Step 5: RAG -->
  <rect x="530" y="320" width="100" height="50" class="process" />
  <text x="580" y="340" text-anchor="middle" class="text">5. RAG</text>
  <text x="580" y="355" text-anchor="middle" class="text">Response</text>
  
  <!-- Chat Step 6: Timestamps -->
  <rect x="650" y="320" width="100" height="50" class="process" />
  <text x="700" y="340" text-anchor="middle" class="text">6. Extract</text>
  <text x="700" y="355" text-anchor="middle" class="text">Timestamps</text>
  
  <!-- External Services -->
  <text x="850" y="190" class="subtitle">External Services</text>
  
  <rect x="800" y="200" width="120" height="50" class="service" />
  <text x="860" y="220" text-anchor="middle" class="text">OpenAI API</text>
  <text x="860" y="235" text-anchor="middle" class="text">Whisper & GPT</text>
  
  <rect x="940" y="200" width="120" height="50" class="service" />
  <text x="1000" y="220" text-anchor="middle" class="text">Pinecone</text>
  <text x="1000" y="235" text-anchor="middle" class="text">Vector Database</text>
  
  <rect x="800" y="270" width="120" height="50" class="service" />
  <text x="860" y="290" text-anchor="middle" class="text">Supabase</text>
  <text x="860" y="305" text-anchor="middle" class="text">PostgreSQL DB</text>
  
  <rect x="940" y="270" width="120" height="50" class="service" />
  <text x="1000" y="290" text-anchor="middle" class="text">FFmpeg</text>
  <text x="1000" y="305" text-anchor="middle" class="text">Media Processing</text>
  
  <!-- Data Storage -->
  <text x="100" y="450" class="subtitle">Data Storage & Management</text>
  
  <rect x="50" y="460" width="150" height="80" class="storage" />
  <text x="125" y="485" text-anchor="middle" class="text">Video Metadata</text>
  <text x="125" y="500" text-anchor="middle" class="text">• File info</text>
  <text x="125" y="515" text-anchor="middle" class="text">• Processing status</text>
  <text x="125" y="530" text-anchor="middle" class="text">• Timestamps</text>
  
  <rect x="220" y="460" width="150" height="80" class="storage" />
  <text x="295" y="485" text-anchor="middle" class="text">Text Chunks</text>
  <text x="295" y="500" text-anchor="middle" class="text">• Segmented text</text>
  <text x="295" y="515" text-anchor="middle" class="text">• Overlap regions</text>
  <text x="295" y="530" text-anchor="middle" class="text">• Timing data</text>
  
  <rect x="390" y="460" width="150" height="80" class="storage" />
  <text x="465" y="485" text-anchor="middle" class="text">Vector Embeddings</text>
  <text x="465" y="500" text-anchor="middle" class="text">• 1536-dim vectors</text>
  <text x="465" y="515" text-anchor="middle" class="text">• Similarity search</text>
  <text x="465" y="530" text-anchor="middle" class="text">• Context retrieval</text>
  
  <rect x="560" y="460" width="150" height="80" class="storage" />
  <text x="635" y="485" text-anchor="middle" class="text">Chat History</text>
  <text x="635" y="500" text-anchor="middle" class="text">• Conversations</text>
  <text x="635" y="515" text-anchor="middle" class="text">• User queries</text>
  <text x="635" y="530" text-anchor="middle" class="text">• AI responses</text>
  
  <!-- Technology Stack -->
  <text x="800" y="450" class="subtitle">Technology Stack</text>
  
  <rect x="750" y="460" width="100" height="60" class="box" />
  <text x="800" y="480" text-anchor="middle" class="text">Frontend</text>
  <text x="800" y="495" text-anchor="middle" class="text">React + TS</text>
  <text x="800" y="510" text-anchor="middle" class="text">Tailwind CSS</text>
  
  <rect x="870" y="460" width="100" height="60" class="box" />
  <text x="920" y="480" text-anchor="middle" class="text">Backend</text>
  <text x="920" y="495" text-anchor="middle" class="text">Node.js</text>
  <text x="920" y="510" text-anchor="middle" class="text">Express.js</text>
  
  <rect x="990" y="460" width="100" height="60" class="box" />
  <text x="1040" y="480" text-anchor="middle" class="text">AI/ML</text>
  <text x="1040" y="495" text-anchor="middle" class="text">OpenAI GPT</text>
  <text x="1040" y="510" text-anchor="middle" class="text">Whisper API</text>
  
  <!-- Key Features -->
  <text x="100" y="590" class="subtitle">Key Features</text>
  
  <rect x="50" y="600" width="200" height="120" class="box" />
  <text x="150" y="620" text-anchor="middle" class="text">🎯 Smart Transcription</text>
  <text x="150" y="640" text-anchor="middle" class="text">• Multi-format support</text>
  <text x="150" y="655" text-anchor="middle" class="text">• High accuracy</text>
  <text x="150" y="670" text-anchor="middle" class="text">• Timestamp alignment</text>
  <text x="150" y="685" text-anchor="middle" class="text">• Real-time processing</text>
  <text x="150" y="700" text-anchor="middle" class="text">• Error handling</text>
  
  <rect x="270" y="600" width="200" height="120" class="box" />
  <text x="370" y="620" text-anchor="middle" class="text">🧠 Intelligent Search</text>
  <text x="370" y="640" text-anchor="middle" class="text">• Semantic similarity</text>
  <text x="370" y="655" text-anchor="middle" class="text">• Context-aware</text>
  <text x="370" y="670" text-anchor="middle" class="text">• Vector embeddings</text>
  <text x="370" y="685" text-anchor="middle" class="text">• Relevance scoring</text>
  <text x="370" y="700" text-anchor="middle" class="text">• Fallback search</text>
  
  <rect x="490" y="600" width="200" height="120" class="box" />
  <text x="590" y="620" text-anchor="middle" class="text">💬 Interactive Chat</text>
  <text x="590" y="640" text-anchor="middle" class="text">• RAG responses</text>
  <text x="590" y="655" text-anchor="middle" class="text">• Timestamp navigation</text>
  <text x="590" y="670" text-anchor="middle" class="text">• Context preservation</text>
  <text x="590" y="685" text-anchor="middle" class="text">• History tracking</text>
  <text x="590" y="700" text-anchor="middle" class="text">• Real-time updates</text>
  
  <rect x="710" y="600" width="200" height="120" class="box" />
  <text x="810" y="620" text-anchor="middle" class="text">⚡ Performance</text>
  <text x="810" y="640" text-anchor="middle" class="text">• Scalable architecture</text>
  <text x="810" y="655" text-anchor="middle" class="text">• Efficient chunking</text>
  <text x="810" y="670" text-anchor="middle" class="text">• Fast vector search</text>
  <text x="810" y="685" text-anchor="middle" class="text">• Optimized storage</text>
  <text x="810" y="700" text-anchor="middle" class="text">• Error recovery</text>
  
  <!-- Flow Arrows -->
  <!-- Upload flow -->
  <line x1="150" y1="225" x2="170" y2="225" class="arrow" />
  <line x1="270" y1="225" x2="290" y2="225" class="arrow" />
  <line x1="390" y1="225" x2="410" y2="225" class="arrow" />
  <line x1="510" y1="225" x2="530" y2="225" class="arrow" />
  <line x1="630" y1="225" x2="650" y2="225" class="arrow" />
  
  <!-- Chat flow -->
  <line x1="150" y1="345" x2="170" y2="345" class="arrow" />
  <line x1="270" y1="345" x2="290" y2="345" class="arrow" />
  <line x1="390" y1="345" x2="410" y2="345" class="arrow" />
  <line x1="510" y1="345" x2="530" y2="345" class="arrow" />
  <line x1="630" y1="345" x2="650" y2="345" class="arrow" />
  
  <!-- Service connections -->
  <line x1="340" y1="200" x2="860" y2="200" class="data-flow" />
  <line x1="580" y1="200" x2="860" y2="200" class="data-flow" />
  <line x1="700" y1="200" x2="1000" y2="200" class="data-flow" />
  <line x1="220" y1="200" x2="1000" y2="270" class="data-flow" />
  
  <!-- Storage connections -->
  <line x1="125" y1="370" x2="125" y2="460" class="data-flow" />
  <line x1="295" y1="370" x2="295" y2="460" class="data-flow" />
  <line x1="465" y1="370" x2="465" y2="460" class="data-flow" />
  <line x1="635" y1="370" x2="635" y2="460" class="data-flow" />
  
  <!-- User interaction arrows -->
  <line x1="110" y1="140" x2="100" y2="200" class="arrow" />
  <line x1="260" y1="140" x2="100" y2="320" class="arrow" />
  
</svg>